<mxfile host="app.diagrams.net" modified="2022-04-09T21:05:44.817Z" agent="5.0 (Windows NT 10.0; Win64; x64) AppleWebKit/537.36 (KHTML, like Gecko) Chrome/100.0.4896.75 Safari/537.36" etag="RJXxn-sJpNLn9Y7oz9P3" version="17.4.2" type="github">
  <diagram name="Page-1" id="e7e014a7-5840-1c2e-5031-d8a46d1fe8dd">
    <mxGraphModel dx="868" dy="527" grid="1" gridSize="10" guides="1" tooltips="1" connect="1" arrows="1" fold="1" page="1" pageScale="1" pageWidth="1169" pageHeight="826" background="none" math="0" shadow="0">
      <root>
        <mxCell id="0" />
        <mxCell id="1" parent="0" />
        <mxCell id="2" value="User" style="swimlane;whiteSpace=wrap;startSize=23;" parent="1" vertex="1">
          <mxGeometry x="164.5" y="128" width="280" height="270" as="geometry" />
        </mxCell>
        <mxCell id="5" value="" style="ellipse;shape=startState;fillColor=#000000;strokeColor=#ff0000;" parent="2" vertex="1">
          <mxGeometry x="100" y="40" width="30" height="30" as="geometry" />
        </mxCell>
        <mxCell id="6" value="" style="edgeStyle=elbowEdgeStyle;elbow=horizontal;verticalAlign=bottom;endArrow=open;endSize=8;strokeColor=#FF0000;endFill=1;rounded=0" parent="2" source="5" target="7" edge="1">
          <mxGeometry x="100" y="40" as="geometry">
            <mxPoint x="115" y="110" as="targetPoint" />
          </mxGeometry>
        </mxCell>
        <mxCell id="7" value="commit on git main branch" style="whiteSpace=wrap;" parent="2" vertex="1">
          <mxGeometry x="52.75" y="132" width="124.5" height="70" as="geometry" />
        </mxCell>
        <mxCell id="vLkMblUGu_zNVf7CvUI2-42" value="Developer" style="shape=umlActor;verticalLabelPosition=bottom;verticalAlign=top;html=1;outlineConnect=0;" parent="2" vertex="1">
          <mxGeometry x="45.5" y="32" width="30" height="60" as="geometry" />
        </mxCell>
        <mxCell id="vLkMblUGu_zNVf7CvUI2-43" value="[ci skip] in commit title or description does not trigger the workflow" style="text;html=1;strokeColor=none;fillColor=none;align=center;verticalAlign=middle;whiteSpace=wrap;rounded=0;" parent="2" vertex="1">
          <mxGeometry x="50.25" y="202" width="129.5" height="68" as="geometry" />
        </mxCell>
        <mxCell id="3" value="CircleCi" style="swimlane;whiteSpace=wrap" parent="1" vertex="1">
          <mxGeometry x="444.5" y="128" width="510.5" height="1062" as="geometry" />
        </mxCell>
        <mxCell id="vLkMblUGu_zNVf7CvUI2-47" style="edgeStyle=orthogonalEdgeStyle;rounded=0;orthogonalLoop=1;jettySize=auto;html=1;" parent="3" source="15" edge="1">
          <mxGeometry relative="1" as="geometry">
            <mxPoint x="185.5" y="167" as="targetPoint" />
          </mxGeometry>
        </mxCell>
        <mxCell id="ZnlPw3d4LIU5FDZ2XpvK-38" style="edgeStyle=orthogonalEdgeStyle;rounded=0;orthogonalLoop=1;jettySize=auto;html=1;entryX=0.5;entryY=0;entryDx=0;entryDy=0;entryPerimeter=0;" edge="1" parent="3" source="15" target="vLkMblUGu_zNVf7CvUI2-122">
          <mxGeometry relative="1" as="geometry" />
        </mxCell>
        <mxCell id="15" value="triggers pipeline" style="" parent="3" vertex="1">
          <mxGeometry x="35.5" y="142" width="110" height="50" as="geometry" />
        </mxCell>
        <mxCell id="vLkMblUGu_zNVf7CvUI2-74" value="" style="edgeStyle=orthogonalEdgeStyle;rounded=0;orthogonalLoop=1;jettySize=auto;html=1;" parent="3" source="vLkMblUGu_zNVf7CvUI2-71" edge="1">
          <mxGeometry relative="1" as="geometry">
            <mxPoint x="260.5" y="472" as="targetPoint" />
          </mxGeometry>
        </mxCell>
        <mxCell id="vLkMblUGu_zNVf7CvUI2-71" value="npm test" style="whiteSpace=wrap;" parent="3" vertex="1">
          <mxGeometry x="205.5" y="388" width="110" height="50" as="geometry" />
        </mxCell>
        <mxCell id="vLkMblUGu_zNVf7CvUI2-73" value="setup EB CLI" style="whiteSpace=wrap;fillColor=rgb(255, 255, 255);strokeColor=rgb(0, 0, 0);fontColor=rgb(0, 0, 0);" parent="3" vertex="1">
          <mxGeometry x="205.5" y="477" width="110" height="50" as="geometry" />
        </mxCell>
        <mxCell id="vLkMblUGu_zNVf7CvUI2-97" value="" style="endArrow=none;dashed=1;html=1;rounded=0;entryX=0.07;entryY=0.4;entryDx=0;entryDy=0;entryPerimeter=0;" parent="3" target="vLkMblUGu_zNVf7CvUI2-102" edge="1">
          <mxGeometry width="50" height="50" relative="1" as="geometry">
            <mxPoint x="315.5" y="602" as="sourcePoint" />
            <mxPoint x="555.5" y="562" as="targetPoint" />
          </mxGeometry>
        </mxCell>
        <mxCell id="vLkMblUGu_zNVf7CvUI2-98" value="create env" style="edgeLabel;html=1;align=center;verticalAlign=middle;resizable=0;points=[];" parent="vLkMblUGu_zNVf7CvUI2-97" vertex="1" connectable="0">
          <mxGeometry x="-0.1743" y="1" relative="1" as="geometry">
            <mxPoint as="offset" />
          </mxGeometry>
        </mxCell>
        <mxCell id="vLkMblUGu_zNVf7CvUI2-104" value="" style="endArrow=none;dashed=1;html=1;rounded=0;exitX=1.003;exitY=0.411;exitDx=0;exitDy=0;exitPerimeter=0;entryX=0.13;entryY=0.77;entryDx=0;entryDy=0;entryPerimeter=0;" parent="3" target="vLkMblUGu_zNVf7CvUI2-102" edge="1">
          <mxGeometry width="50" height="50" relative="1" as="geometry">
            <mxPoint x="315.49999999999966" y="672.55" as="sourcePoint" />
            <mxPoint x="505.16999999999996" y="582" as="targetPoint" />
          </mxGeometry>
        </mxCell>
        <mxCell id="vLkMblUGu_zNVf7CvUI2-105" value="&lt;span style=&quot;font-size: 12px ; background-color: rgb(248 , 249 , 250)&quot;&gt;setup environment variables&lt;/span&gt;" style="edgeLabel;html=1;align=center;verticalAlign=middle;resizable=0;points=[];" parent="vLkMblUGu_zNVf7CvUI2-104" vertex="1" connectable="0">
          <mxGeometry x="-0.1743" y="1" relative="1" as="geometry">
            <mxPoint as="offset" />
          </mxGeometry>
        </mxCell>
        <mxCell id="vLkMblUGu_zNVf7CvUI2-122" value="Frontend" style="swimlane;" parent="3" vertex="1">
          <mxGeometry x="30.5" y="242" width="120" height="128" as="geometry" />
        </mxCell>
        <mxCell id="vLkMblUGu_zNVf7CvUI2-123" value="see Backend" style="text;html=1;strokeColor=none;fillColor=none;align=center;verticalAlign=middle;whiteSpace=wrap;rounded=0;" parent="vLkMblUGu_zNVf7CvUI2-122" vertex="1">
          <mxGeometry x="30" y="69" width="60" height="30" as="geometry" />
        </mxCell>
        <mxCell id="4" value="AWS" style="swimlane;whiteSpace=wrap" parent="1" vertex="1">
          <mxGeometry x="955" y="530" width="224.5" height="250" as="geometry" />
        </mxCell>
        <mxCell id="vLkMblUGu_zNVf7CvUI2-102" value="Elastic Beanstalk" style="ellipse;shape=cloud;whiteSpace=wrap;html=1;" parent="4" vertex="1">
          <mxGeometry x="-10" width="230" height="250" as="geometry" />
        </mxCell>
        <mxCell id="vLkMblUGu_zNVf7CvUI2-44" style="edgeStyle=orthogonalEdgeStyle;rounded=0;orthogonalLoop=1;jettySize=auto;html=1;" parent="1" edge="1">
          <mxGeometry relative="1" as="geometry">
            <mxPoint x="480" y="296" as="targetPoint" />
            <mxPoint x="340" y="296" as="sourcePoint" />
          </mxGeometry>
        </mxCell>
        <mxCell id="vLkMblUGu_zNVf7CvUI2-62" value="Backend" style="swimlane;" parent="1" vertex="1">
          <mxGeometry x="630" y="200" width="154.5" height="880" as="geometry" />
        </mxCell>
        <mxCell id="vLkMblUGu_zNVf7CvUI2-63" value="" style="edgeStyle=orthogonalEdgeStyle;rounded=0;orthogonalLoop=1;jettySize=auto;html=1;entryX=0.498;entryY=0.02;entryDx=0;entryDy=0;entryPerimeter=0;" parent="vLkMblUGu_zNVf7CvUI2-62" source="vLkMblUGu_zNVf7CvUI2-64" target="vLkMblUGu_zNVf7CvUI2-65" edge="1">
          <mxGeometry relative="1" as="geometry">
            <mxPoint x="77" y="130" as="targetPoint" />
          </mxGeometry>
        </mxCell>
        <mxCell id="vLkMblUGu_zNVf7CvUI2-64" value="setup docker image with nodejs" style="whiteSpace=wrap;" parent="vLkMblUGu_zNVf7CvUI2-62" vertex="1">
          <mxGeometry x="22.25" y="49" width="110" height="50" as="geometry" />
        </mxCell>
        <mxCell id="vLkMblUGu_zNVf7CvUI2-70" style="edgeStyle=orthogonalEdgeStyle;rounded=0;orthogonalLoop=1;jettySize=auto;html=1;entryX=0.509;entryY=-0.051;entryDx=0;entryDy=0;entryPerimeter=0;" parent="vLkMblUGu_zNVf7CvUI2-62" source="vLkMblUGu_zNVf7CvUI2-65" target="vLkMblUGu_zNVf7CvUI2-66" edge="1">
          <mxGeometry relative="1" as="geometry" />
        </mxCell>
        <mxCell id="vLkMblUGu_zNVf7CvUI2-65" value="npm install" style="whiteSpace=wrap;" parent="vLkMblUGu_zNVf7CvUI2-62" vertex="1">
          <mxGeometry x="22.25" y="138" width="110" height="50" as="geometry" />
        </mxCell>
        <mxCell id="vLkMblUGu_zNVf7CvUI2-66" value="npm build" style="whiteSpace=wrap;" parent="vLkMblUGu_zNVf7CvUI2-62" vertex="1">
          <mxGeometry x="22.25" y="227" width="110" height="50" as="geometry" />
        </mxCell>
        <mxCell id="vLkMblUGu_zNVf7CvUI2-90" value="" style="edgeStyle=orthogonalEdgeStyle;rounded=0;orthogonalLoop=1;jettySize=auto;html=1;entryX=0.5;entryY=-0.003;entryDx=0;entryDy=0;entryPerimeter=0;" parent="vLkMblUGu_zNVf7CvUI2-62" source="vLkMblUGu_zNVf7CvUI2-81" target="vLkMblUGu_zNVf7CvUI2-103" edge="1">
          <mxGeometry relative="1" as="geometry" />
        </mxCell>
        <mxCell id="vLkMblUGu_zNVf7CvUI2-81" value="eb create environment" style="whiteSpace=wrap;fillColor=rgb(255, 255, 255);strokeColor=rgb(0, 0, 0);fontColor=rgb(0, 0, 0);" parent="vLkMblUGu_zNVf7CvUI2-62" vertex="1">
          <mxGeometry x="20" y="493" width="110" height="50" as="geometry" />
        </mxCell>
        <mxCell id="vLkMblUGu_zNVf7CvUI2-92" value="" style="edgeStyle=orthogonalEdgeStyle;rounded=0;orthogonalLoop=1;jettySize=auto;html=1;entryX=0.492;entryY=0.023;entryDx=0;entryDy=0;entryPerimeter=0;" parent="vLkMblUGu_zNVf7CvUI2-62" source="vLkMblUGu_zNVf7CvUI2-89" target="vLkMblUGu_zNVf7CvUI2-91" edge="1">
          <mxGeometry relative="1" as="geometry" />
        </mxCell>
        <mxCell id="vLkMblUGu_zNVf7CvUI2-89" value="eb deploy" style="whiteSpace=wrap;fillColor=rgb(255, 255, 255);strokeColor=rgb(0, 0, 0);fontColor=rgb(0, 0, 0);" parent="vLkMblUGu_zNVf7CvUI2-62" vertex="1">
          <mxGeometry x="20" y="671" width="110" height="50" as="geometry" />
        </mxCell>
        <mxCell id="vLkMblUGu_zNVf7CvUI2-124" style="edgeStyle=orthogonalEdgeStyle;rounded=0;orthogonalLoop=1;jettySize=auto;html=1;entryX=0.5;entryY=0;entryDx=0;entryDy=0;" parent="vLkMblUGu_zNVf7CvUI2-62" source="vLkMblUGu_zNVf7CvUI2-91" target="38" edge="1">
          <mxGeometry relative="1" as="geometry" />
        </mxCell>
        <mxCell id="vLkMblUGu_zNVf7CvUI2-91" value="eb status" style="whiteSpace=wrap;fillColor=rgb(255, 255, 255);strokeColor=rgb(0, 0, 0);fontColor=rgb(0, 0, 0);" parent="vLkMblUGu_zNVf7CvUI2-62" vertex="1">
          <mxGeometry x="20" y="760" width="110" height="50" as="geometry" />
        </mxCell>
        <mxCell id="vLkMblUGu_zNVf7CvUI2-125" style="edgeStyle=orthogonalEdgeStyle;rounded=0;orthogonalLoop=1;jettySize=auto;html=1;entryX=0.492;entryY=-0.012;entryDx=0;entryDy=0;entryPerimeter=0;" parent="vLkMblUGu_zNVf7CvUI2-62" source="vLkMblUGu_zNVf7CvUI2-103" target="vLkMblUGu_zNVf7CvUI2-89" edge="1">
          <mxGeometry relative="1" as="geometry" />
        </mxCell>
        <mxCell id="vLkMblUGu_zNVf7CvUI2-103" value="eb setenv" style="whiteSpace=wrap;fillColor=rgb(255, 255, 255);strokeColor=rgb(0, 0, 0);fontColor=rgb(0, 0, 0);" parent="vLkMblUGu_zNVf7CvUI2-62" vertex="1">
          <mxGeometry x="20" y="582" width="110" height="50" as="geometry" />
        </mxCell>
        <mxCell id="38" value="" style="ellipse;shape=endState;fillColor=#000000;strokeColor=#ff0000" parent="vLkMblUGu_zNVf7CvUI2-62" vertex="1">
          <mxGeometry x="60" y="830" width="30" height="30" as="geometry" />
        </mxCell>
        <mxCell id="vLkMblUGu_zNVf7CvUI2-72" style="edgeStyle=orthogonalEdgeStyle;rounded=0;orthogonalLoop=1;jettySize=auto;html=1;exitX=0.474;exitY=1.005;exitDx=0;exitDy=0;exitPerimeter=0;" parent="1" source="vLkMblUGu_zNVf7CvUI2-66" edge="1">
          <mxGeometry relative="1" as="geometry">
            <mxPoint x="707.25" y="510.0000000000001" as="targetPoint" />
          </mxGeometry>
        </mxCell>
        <mxCell id="vLkMblUGu_zNVf7CvUI2-85" style="edgeStyle=orthogonalEdgeStyle;rounded=0;orthogonalLoop=1;jettySize=auto;html=1;" parent="1" edge="1">
          <mxGeometry relative="1" as="geometry">
            <mxPoint x="705" y="650" as="sourcePoint" />
            <mxPoint x="705" y="700" as="targetPoint" />
            <Array as="points" />
          </mxGeometry>
        </mxCell>
        <mxCell id="vLkMblUGu_zNVf7CvUI2-99" value="" style="endArrow=none;dashed=1;html=1;rounded=0;exitX=1.003;exitY=0.411;exitDx=0;exitDy=0;exitPerimeter=0;entryX=0.395;entryY=0.923;entryDx=0;entryDy=0;entryPerimeter=0;" parent="1" source="vLkMblUGu_zNVf7CvUI2-89" target="vLkMblUGu_zNVf7CvUI2-102" edge="1">
          <mxGeometry width="50" height="50" relative="1" as="geometry">
            <mxPoint x="770" y="740" as="sourcePoint" />
            <mxPoint x="950" y="760" as="targetPoint" />
          </mxGeometry>
        </mxCell>
        <mxCell id="vLkMblUGu_zNVf7CvUI2-100" value="&lt;span style=&quot;font-size: 12px ; background-color: rgb(248 , 249 , 250)&quot;&gt;upload archive to AWS S3&lt;/span&gt;" style="edgeLabel;html=1;align=center;verticalAlign=middle;resizable=0;points=[];" parent="vLkMblUGu_zNVf7CvUI2-99" vertex="1" connectable="0">
          <mxGeometry x="-0.1743" y="1" relative="1" as="geometry">
            <mxPoint as="offset" />
          </mxGeometry>
        </mxCell>
        <mxCell id="vLkMblUGu_zNVf7CvUI2-106" value="" style="endArrow=none;dashed=1;html=1;rounded=0;exitX=1.023;exitY=0.495;exitDx=0;exitDy=0;exitPerimeter=0;entryX=0.55;entryY=0.95;entryDx=0;entryDy=0;entryPerimeter=0;" parent="1" source="vLkMblUGu_zNVf7CvUI2-91" target="vLkMblUGu_zNVf7CvUI2-102" edge="1">
          <mxGeometry width="50" height="50" relative="1" as="geometry">
            <mxPoint x="770.3299999999997" y="870.55" as="sourcePoint" />
            <mxPoint x="960" y="770" as="targetPoint" />
          </mxGeometry>
        </mxCell>
        <mxCell id="vLkMblUGu_zNVf7CvUI2-107" value="&lt;span style=&quot;font-size: 12px ; background-color: rgb(248 , 249 , 250)&quot;&gt;waiting for health = OK&lt;/span&gt;" style="edgeLabel;html=1;align=center;verticalAlign=middle;resizable=0;points=[];" parent="vLkMblUGu_zNVf7CvUI2-106" vertex="1" connectable="0">
          <mxGeometry x="-0.1743" y="1" relative="1" as="geometry">
            <mxPoint as="offset" />
          </mxGeometry>
        </mxCell>
      </root>
    </mxGraphModel>
  </diagram>
</mxfile>
